<svg width="14" height="15" viewBox="0 0 14 15" fill="none" xmlns="http://www.w3.org/2000/svg">
<path d="M6.99967 0.833252C3.31688 0.833252 0.333008 3.81712 0.333008 7.49992C0.333008 11.1827 3.31688 14.1666 6.99967 14.1666C10.6825 14.1666 13.6663 11.1827 13.6663 7.49992C13.6663 3.81712 10.6825 0.833252 6.99967 0.833252ZM10.8706 8.25261C10.8706 8.43003 10.7255 8.57519 10.5481 8.57519H8.07494V11.0483C8.07494 11.2257 7.92978 11.3709 7.75236 11.3709H6.24699C6.06957 11.3709 5.92441 11.2257 5.92441 11.0483V8.57519H3.45129C3.27387 8.57519 3.12871 8.43003 3.12871 8.25261V6.74723C3.12871 6.56981 3.27387 6.42465 3.45129 6.42465H5.92441V3.95153C5.92441 3.77411 6.06957 3.62895 6.24699 3.62895H7.75236C7.92978 3.62895 8.07494 3.77411 8.07494 3.95153V6.42465H10.5481C10.7255 6.42465 10.8706 6.56981 10.8706 6.74723V8.25261Z" fill="white"/>
</svg>
