<svg width="18" height="18" viewBox="0 0 18 18" fill="none" xmlns="http://www.w3.org/2000/svg">
<path d="M1.74194 7.25806C1.74194 6.77706 1.35199 6.3871 0.870968 6.3871C0.38995 6.3871 0 6.77706 0 7.25806H1.74194ZM7.83871 18C8.31972 18 8.70968 17.61 8.70968 17.129C8.70968 16.648 8.31972 16.2581 7.83871 16.2581V18ZM0 7.25806C0 7.73907 0.38995 8.12903 0.870968 8.12903C1.35199 8.12903 1.74194 7.73907 1.74194 7.25806H0ZM7.83871 1.74194C8.31972 1.74194 8.70968 1.35199 8.70968 0.870968C8.70968 0.38995 8.31972 0 7.83871 0V1.74194ZM0.870968 6.3871C0.38995 6.3871 0 6.77706 0 7.25806C0 7.73907 0.38995 8.12903 0.870968 8.12903V6.3871ZM7.83871 8.12903C8.31972 8.12903 8.70968 7.73907 8.70968 7.25806C8.70968 6.77706 8.31972 6.3871 7.83871 6.3871V8.12903ZM6.96774 7.25806C6.96774 7.73907 7.3577 8.12903 7.83871 8.12903C8.31972 8.12903 8.70968 7.73907 8.70968 7.25806H6.96774ZM8.70968 0.870968C8.70968 0.38995 8.31972 0 7.83871 0C7.3577 0 6.96774 0.38995 6.96774 0.870968H8.70968ZM8.70968 7.25806C8.70968 6.77706 8.31972 6.3871 7.83871 6.3871C7.3577 6.3871 6.96774 6.77706 6.96774 7.25806H8.70968ZM6.96774 11.3226C6.96774 11.8036 7.3577 12.1935 7.83871 12.1935C8.31972 12.1935 8.70968 11.8036 8.70968 11.3226H6.96774ZM7.83871 16.2581C7.3577 16.2581 6.96774 16.648 6.96774 17.129C6.96774 17.61 7.3577 18 7.83871 18V16.2581ZM18 11.3226C18 10.8416 17.61 10.4516 17.129 10.4516C16.648 10.4516 16.2581 10.8416 16.2581 11.3226H18ZM6.96774 17.129C6.96774 17.61 7.3577 18 7.83871 18C8.31972 18 8.70968 17.61 8.70968 17.129H6.96774ZM8.70968 11.3226C8.70968 10.8416 8.31972 10.4516 7.83871 10.4516C7.3577 10.4516 6.96774 10.8416 6.96774 11.3226H8.70968ZM7.83871 0C7.3577 0 6.96774 0.38995 6.96774 0.870968C6.96774 1.35199 7.3577 1.74194 7.83871 1.74194V0ZM16.2581 11.3226C16.2581 11.8036 16.648 12.1935 17.129 12.1935C17.61 12.1935 18 11.8036 18 11.3226H16.2581ZM17.129 12.1935C17.61 12.1935 18 11.8036 18 11.3226C18 10.8416 17.61 10.4516 17.129 10.4516V12.1935ZM7.83871 10.4516C7.3577 10.4516 6.96774 10.8416 6.96774 11.3226C6.96774 11.8036 7.3577 12.1935 7.83871 12.1935V10.4516ZM0 7.25806V12.4839H1.74194V7.25806H0ZM0 12.4839C0 15.5304 2.46966 18 5.51613 18V16.2581C3.43169 16.2581 1.74194 14.5683 1.74194 12.4839H0ZM5.51613 18H7.83871V16.2581H5.51613V18ZM1.74194 7.25806V5.51613H0V7.25806H1.74194ZM1.74194 5.51613C1.74194 3.43169 3.43169 1.74194 5.51613 1.74194V0C2.46966 0 0 2.46966 0 5.51613H1.74194ZM5.51613 1.74194H7.83871V0H5.51613V1.74194ZM0.870968 8.12903H7.83871V6.3871H0.870968V8.12903ZM8.70968 7.25806V0.870968H6.96774V7.25806H8.70968ZM6.96774 7.25806V11.3226H8.70968V7.25806H6.96774ZM7.83871 18H12.4839V16.2581H7.83871V18ZM12.4839 18C15.5304 18 18 15.5304 18 12.4839H16.2581C16.2581 14.5683 14.5683 16.2581 12.4839 16.2581V18ZM18 12.4839V11.3226H16.2581V12.4839H18ZM8.70968 17.129V11.3226H6.96774V17.129H8.70968ZM7.83871 1.74194H12.4839V0H7.83871V1.74194ZM12.4839 1.74194C14.5683 1.74194 16.2581 3.43169 16.2581 5.51613H18C18 2.46966 15.5304 0 12.4839 0V1.74194ZM16.2581 5.51613V11.3226H18V5.51613H16.2581ZM17.129 10.4516H7.83871V12.1935H17.129V10.4516Z" fill="#64737A"/>
</svg>
