<svg width="18" height="16" viewBox="0 0 18 16" fill="none" xmlns="http://www.w3.org/2000/svg">
<path d="M16.3333 3.0491H9.44917L7.2825 0.568324C7.12563 0.389022 6.93307 0.245636 6.71758 0.147661C6.50209 0.0496855 6.26857 -0.000643647 6.0325 6.21398e-06H1.66667C1.22464 6.21398e-06 0.800716 0.178475 0.488155 0.496151C0.175595 0.813827 0 1.24469 0 1.69395V14.2816C0.000661193 14.7168 0.171025 15.1339 0.473753 15.4416C0.776481 15.7493 1.18688 15.9224 1.615 15.9231H16.4075C16.8297 15.9226 17.2345 15.752 17.5331 15.4485C17.8316 15.1451 17.9996 14.7336 18 14.3045V4.74305C18 4.29379 17.8244 3.86293 17.5118 3.54525C17.1993 3.22757 16.7754 3.0491 16.3333 3.0491ZM2 2.03274H5.88417L6.77333 3.0491H2V2.03274ZM16 13.8903H2V5.08184H16V13.8903Z" fill="#263238"/>
</svg>
