<svg width="26" height="20" viewBox="0 0 26 20" fill="none" xmlns="http://www.w3.org/2000/svg">
<path d="M18.5004 17.225C18.3421 17.225 18.1837 17.1667 18.0587 17.0417L12.6254 11.6084C11.7421 10.725 11.7421 9.27502 12.6254 8.39168L18.0587 2.95835C18.3004 2.71668 18.7004 2.71668 18.9421 2.95835C19.1837 3.20002 19.1837 3.60002 18.9421 3.84168L13.5087 9.27502C13.1087 9.67502 13.1087 10.325 13.5087 10.725L18.9421 16.1583C19.1837 16.4 19.1837 16.8 18.9421 17.0417C18.8171 17.1584 18.6587 17.225 18.5004 17.225Z" fill="#263238"/>
<path d="M12.5004 17.225C12.3421 17.225 12.1837 17.1667 12.0587 17.0417L6.62539 11.6084C5.74206 10.725 5.74206 9.27502 6.62539 8.39168L12.0587 2.95835C12.3004 2.71668 12.7004 2.71668 12.9421 2.95835C13.1837 3.20002 13.1837 3.60002 12.9421 3.84168L7.50872 9.27502C7.10872 9.67502 7.10872 10.325 7.50872 10.725L12.9421 16.1583C13.1837 16.4 13.1837 16.8 12.9421 17.0417C12.8171 17.1584 12.6587 17.225 12.5004 17.225Z" fill="#263238"/>
</svg>
