<svg width="40" height="40" viewBox="0 0 40 40" fill="none" xmlns="http://www.w3.org/2000/svg">
<path d="M32.1733 7.82609V2.60867H26.9559V0H13.0429V2.60867H7.82547V7.82609H5.2168V21.7391H7.82547V40H13.0429V37.3913H10.4342V26.9565H13.0429V29.5652H26.9559V26.9565H29.5646V37.3913H26.9559V40H32.1734V21.7391H34.782V7.82609H32.1733ZM24.3472 16.5217H18.2602V19.1304H24.3472V21.7391H15.6516V13.913H21.7385V10.4348H15.6516V7.82609H24.3472V16.5217Z" fill="#263238" fill-opacity="0.5"/>
<path d="M15.6516 34.7825H13.043V37.3911H15.6516V34.7825Z" fill="#263238" fill-opacity="0.5"/>
<path d="M24.347 37.3914H21.7383V40H24.347V37.3914Z" fill="#263238" fill-opacity="0.5"/>
<path d="M18.261 37.3914H15.6523V40H18.261V37.3914Z" fill="#263238" fill-opacity="0.5"/>
<path d="M21.74 34.7825H18.2617V37.3911H21.74V34.7825Z" fill="#263238" fill-opacity="0.5"/>
<path d="M26.9563 34.7825H24.3477V37.3911H26.9563V34.7825Z" fill="#263238" fill-opacity="0.5"/>
</svg>
