<svg width="18" height="18" viewBox="0 0 18 18" fill="none" xmlns="http://www.w3.org/2000/svg">
<path d="M18 9L14.7273 1.10455C12.9041 0.381127 10.9614 0.00645429 9 0C7.0386 0.00645429 5.09585 0.381127 3.27273 1.10455L0 9V9.81818C0 10.6862 0.344804 11.5186 0.95856 12.1323C1.57232 12.7461 2.40475 13.0909 3.27273 13.0909C4.14071 13.0909 4.97314 12.7461 5.58689 12.1323C6.20065 11.5186 6.54545 10.6862 6.54545 9.81818V9L3.92727 2.86364L4.05 2.53636C5.37609 2.04334 6.76911 1.7537 8.18182 1.67727V15.5455H5.31818C5.10119 15.5455 4.89308 15.6317 4.73964 15.7851C4.5862 15.9385 4.5 16.1466 4.5 16.3636C4.5 16.5806 4.5862 16.7887 4.73964 16.9422C4.89308 17.0956 5.10119 17.1818 5.31818 17.1818H12.6818C12.8988 17.1818 13.1069 17.0956 13.2604 16.9422C13.4138 16.7887 13.5 16.5806 13.5 16.3636C13.5 16.1466 13.4138 15.9385 13.2604 15.7851C13.1069 15.6317 12.8988 15.5455 12.6818 15.5455H9.81818V1.67727C11.2309 1.7537 12.6239 2.04334 13.95 2.53636L14.0727 2.86364L11.4545 9V9.81818C11.4545 10.6862 11.7993 11.5186 12.4131 12.1323C13.0269 12.7461 13.8593 13.0909 14.7273 13.0909C15.5953 13.0909 16.4277 12.7461 17.0414 12.1323C17.6552 11.5186 18 10.6862 18 9.81818V9ZM3.27273 11.4545C2.983 11.4571 2.69778 11.3828 2.44622 11.239C2.19465 11.0953 1.98577 10.8873 1.84091 10.6364H4.70455C4.55969 10.8873 4.3508 11.0953 4.09924 11.239C3.84768 11.3828 3.56245 11.4571 3.27273 11.4545ZM4.99091 9H1.30909L3.27273 4.62273L4.99091 9ZM14.7273 4.62273L16.4455 9H12.7636L14.7273 4.62273ZM14.7273 11.4545C14.4375 11.4571 14.1523 11.3828 13.9008 11.239C13.6492 11.0953 13.4403 10.8873 13.2955 10.6364H16.1591C16.0142 10.8873 15.8053 11.0953 15.5538 11.239C15.3022 11.3828 15.017 11.4571 14.7273 11.4545Z" fill="#263238"/>
</svg>
