<svg width="110" height="24" viewBox="0 0 110 24" fill="none" xmlns="http://www.w3.org/2000/svg">
<path d="M26.0574 16.5597C27.1719 15.9821 28.0484 15.1601 28.681 14.0967L28.6818 14.0953C29.3159 13.016 29.6286 11.7741 29.6286 10.3792C29.6286 8.98469 29.3161 7.74879 28.6814 6.68165C28.0491 5.60561 27.1726 4.77662 26.0574 4.19869C24.9563 3.62145 23.7132 3.33629 22.3352 3.33629H17.4214H17.1229V3.63478V17.1236V17.4221H17.4214H22.3352C23.7133 17.4221 24.9563 17.1369 26.0574 16.5597ZM26.0574 16.5597C26.0572 16.5598 26.0569 16.5599 26.0567 16.56L25.9194 16.295M26.0574 16.5597C26.0576 16.5596 26.0578 16.5595 26.058 16.5594L25.9194 16.295M25.9194 16.295C24.866 16.8474 23.6713 17.1236 22.3352 17.1236H17.7199L25.9194 4.46338C26.9857 5.01578 27.8207 5.80584 28.4245 6.83356C29.0282 7.84844 29.3301 9.03031 29.3301 10.3792C29.3301 11.7281 29.0282 12.9164 28.4245 13.9441C27.8207 14.959 26.9857 15.7426 25.9194 16.295ZM2.77282 17.4221H2.97395L3.04947 17.2357L4.49626 13.6645H10.5494L11.9962 17.2357L12.0717 17.4221H12.2728H14.0263H14.4737L14.302 17.009L8.69448 3.5202L8.61802 3.33629H8.41885H6.6075H6.40833L6.33187 3.5202L0.724377 17.009L0.552657 17.4221H1H2.77282ZM26.7578 12.988L26.7561 12.9912C26.3474 13.7364 25.7665 14.3119 25.0074 14.7217C24.262 15.1182 23.3745 15.3221 22.3352 15.3221H19.3V5.43632H22.3352C23.3736 5.43632 24.2602 5.64622 25.0051 6.05472L25.0051 6.05476L25.0101 6.05741C25.7677 6.45423 26.3477 7.02253 26.7561 7.76715L26.756 7.76716L26.7578 7.77036C27.1789 8.5162 27.3937 9.38286 27.3937 10.3792C27.3937 11.3755 27.1789 12.2422 26.7578 12.988ZM31.1075 3.33629H30.6666L30.8303 3.74564L36.2259 17.2345L36.3009 17.4221H36.503H38.2951H38.4974L38.5724 17.2341L43.9486 3.7453L44.1116 3.33629H43.6713H41.9178H41.7135L41.6396 3.52671L37.39 14.4671L33.1587 3.52711L33.0849 3.33629H32.8803H31.1075ZM72.7048 16.7451L72.7086 16.7473C73.7978 17.3658 75.0184 17.6726 76.3631 17.6726C77.5221 17.6726 78.6177 17.4392 79.6468 16.9714L79.6497 16.9701C80.686 16.4856 81.53 15.7769 82.1771 14.8468L82.3452 14.6051L82.1059 14.4337L80.8148 13.5088L80.566 13.3305L80.394 13.5837C79.9616 14.2203 79.392 14.7128 78.6797 15.0631C77.9775 15.4019 77.2132 15.5726 76.3823 15.5726C75.4152 15.5726 74.57 15.3529 73.8378 14.9212C73.1017 14.4743 72.5225 13.8658 72.098 13.0905C71.6871 12.304 71.478 11.4027 71.478 10.3792C71.478 9.3561 71.6933 8.45514 72.1168 7.66879C72.5416 6.87982 73.1205 6.27208 73.8549 5.8385C74.6022 5.40485 75.4423 5.18581 76.3823 5.18581C77.1881 5.18581 77.9271 5.3503 78.6036 5.67648L78.6055 5.67736C79.2954 6.00418 79.8609 6.462 80.3064 7.05197L80.4818 7.28428L80.7184 7.11475L82.0095 6.1898L82.2534 6.01508L82.0774 5.77209C81.5054 4.98211 80.7141 4.34297 79.7154 3.84992C78.7188 3.3386 77.6057 3.08579 76.3823 3.08579C75.0499 3.08579 73.8359 3.3928 72.7471 4.01113C71.6585 4.62938 70.798 5.49737 70.1682 6.6094L70.1677 6.61045C69.5486 7.71391 69.2431 8.97295 69.2431 10.3792C69.2431 11.7732 69.5489 13.0315 70.1669 14.1466L70.1677 14.1479C70.7841 15.2468 71.6308 16.1141 72.7048 16.7451ZM86.3568 17.4221H86.558L86.6335 17.2357L88.0803 13.6645H94.1334L95.5802 17.2357L95.6557 17.4221H95.8568H97.6104H98.0577L97.886 17.009L92.2785 3.5202L92.202 3.33629H92.0029H90.1915H89.9924L89.9159 3.5202L84.3084 17.009L84.1367 17.4221H84.584H86.3568ZM97.8526 5.11856V5.41705H98.1511H102.477V17.1236V17.4221H102.776H104.356H104.654V17.1236V5.41705H109H109.298V5.11856V3.63478V3.33629H109H98.1511H97.8526V3.63478V5.11856ZM5.33434 11.603L7.51419 6.18545L9.71006 11.603H5.33434ZM88.9184 11.603L91.0982 6.18546L93.2941 11.603H88.9184Z" fill="#263238" stroke="#263238" stroke-width="0.596982"/>
<path d="M62.1893 16.6241C65.6523 13.1611 65.6523 7.54652 62.1893 4.08354C58.7263 0.620551 53.1117 0.620551 49.6487 4.08354C46.1857 7.54652 46.1857 13.1611 49.6487 16.6241C53.1117 20.0871 58.7263 20.0871 62.1893 16.6241Z" stroke="#263238" stroke-width="2.14117"/>
<path d="M52.5781 17.5072L55.8813 18.1509L59.2612 17.6682C59.2612 17.6682 59.0509 17.144 58.5955 16.5652C57.6784 15.3998 54.1841 15.3998 53.2671 16.5652C52.8117 17.144 52.5781 17.5072 52.5781 17.5072Z" fill="#263238" stroke="#263238" stroke-width="0.464104"/>
<path d="M53.877 16.7347L55.8726 17.2691L57.9147 16.8683C57.9147 16.8683 57.7876 16.4332 57.5124 15.9527C56.9584 14.9852 54.8472 14.9852 54.2932 15.9527C54.0181 16.4332 53.877 16.7347 53.877 16.7347Z" fill="#263238" stroke="#263238" stroke-width="0.464104"/>
<path d="M56.3828 15.2269H55.4082L55.6789 4.92383H56.1121L56.3828 15.2269Z" fill="#263238" stroke="#263238" stroke-width="0.464104"/>
<path d="M56.5221 4.92385H55.3154L55.4592 2.28525C55.4592 2.28525 55.7331 2.21264 55.9188 2C56.058 2.21264 56.3785 2.28525 56.3785 2.28525L56.5221 4.92385Z" fill="#263238" stroke="white" stroke-width="0.185641"/>
<path d="M56.4223 4.17741C56.2061 3.74946 55.586 3.74946 55.3698 4.17741C55.2361 4.44206 55.2361 4.70956 55.3698 4.97421C55.586 5.40215 56.2061 5.40215 56.4223 4.97421C56.556 4.70956 56.556 4.44206 56.4223 4.17741Z" fill="#263238" stroke="#263238" stroke-width="0.464104"/>
<path d="M59.7238 5.78183L59.8095 5.50652C59.8095 5.50652 58.9585 4.76591 58.3267 4.56925C57.695 4.37259 56.574 4.49938 56.574 4.49938L56.4883 4.77468C56.4883 4.77468 57.5893 4.71212 58.221 4.90877C58.8528 5.10543 59.7238 5.78183 59.7238 5.78183Z" fill="#263238"/>
<path d="M52.0555 5.75815L51.9698 5.48284C51.9698 5.48284 52.8208 4.74222 53.4526 4.54557C54.0843 4.34891 55.2053 4.47569 55.2053 4.47569L55.291 4.751C55.291 4.751 54.19 4.68843 53.5583 4.88509C52.9265 5.08175 52.0555 5.75815 52.0555 5.75815Z" fill="#263238"/>
<path d="M60.088 5.30998C60.0524 5.08442 59.8434 4.93029 59.6174 4.96301C59.3885 4.99615 59.2659 5.4397 59.2659 5.4397L59.7366 5.78667C59.7366 5.78667 60.1241 5.53843 60.088 5.30998Z" fill="#263238" stroke="#263238" stroke-width="0.0149929"/>
<path d="M51.5936 5.36467C51.6292 5.13911 51.8383 4.98498 52.0643 5.0177C52.2932 5.05083 52.4157 5.49439 52.4157 5.49439L51.945 5.84136C51.945 5.84136 51.5576 5.59312 51.5936 5.36467Z" fill="#263238" stroke="#263238" stroke-width="0.0149929"/>
<path d="M50.2844 11.6692L51.951 5.64337L53.6176 11.6692H50.2844Z" stroke="#263238" stroke-width="0.185641"/>
<path d="M58.0354 11.6692L59.702 5.64337L61.3686 11.6692H58.0354Z" stroke="#263238" stroke-width="0.185641"/>
<path d="M50.3035 11.7462V11.6722H50.2294V11.7462C50.2294 12.0581 50.4375 12.3282 50.7476 12.5164C51.0592 12.7054 51.4848 12.8199 51.9511 12.8199C52.4173 12.8199 52.8429 12.7054 53.1545 12.5164C53.4647 12.3282 53.6727 12.0581 53.6727 11.7462V11.6722H53.5986V11.7462L53.5986 11.6722H53.5986H53.5985H53.5985H53.5984H53.5983H53.5982H53.598H53.5979H53.5977H53.5975H53.5973H53.5971H53.5968H53.5965H53.5963H53.5959H53.5956H53.5953H53.5949H53.5945H53.5941H53.5937H53.5933H53.5929H53.5924H53.5919H53.5914H53.5909H53.5903H53.5898H53.5892H53.5886H53.588H53.5874H53.5867H53.5861H53.5854H53.5847H53.584H53.5832H53.5825H53.5817H53.5809H53.5801H53.5793H53.5785H53.5776H53.5767H53.5759H53.5749H53.574H53.5731H53.5721H53.5712H53.5702H53.5692H53.5681H53.5671H53.566H53.5649H53.5639H53.5627H53.5616H53.5605H53.5593H53.5581H53.5569H53.5557H53.5545H53.5533H53.552H53.5507H53.5494H53.5481H53.5468H53.5455H53.5441H53.5427H53.5414H53.54H53.5385H53.5371H53.5356H53.5342H53.5327H53.5312H53.5297H53.5281H53.5266H53.525H53.5234H53.5218H53.5202H53.5186H53.517H53.5153H53.5136H53.5119H53.5102H53.5085H53.5068H53.505H53.5033H53.5015H53.4997H53.4979H53.496H53.4942H53.4923H53.4904H53.4886H53.4867H53.4847H53.4828H53.4808H53.4789H53.4769H53.4749H53.4729H53.4709H53.4688H53.4668H53.4647H53.4626H53.4605H53.4584H53.4563H53.4541H53.452H53.4498H53.4476H53.4454H53.4432H53.441H53.4387H53.4365H53.4342H53.4319H53.4296H53.4273H53.425H53.4226H53.4203H53.4179H53.4155H53.4131H53.4107H53.4083H53.4058H53.4034H53.4009H53.3984H53.3959H53.3934H53.3909H53.3884H53.3858H53.3833H53.3807H53.3781H53.3755H53.3729H53.3702H53.3676H53.3649H53.3622H53.3596H53.3569H53.3541H53.3514H53.3487H53.3459H53.3432H53.3404H53.3376H53.3348H53.332H53.3291H53.3263H53.3234H53.3206H53.3177H53.3148H53.3119H53.309H53.306H53.3031H53.3001H53.2972H53.2942H53.2912H53.2882H53.2852H53.2821H53.2791H53.276H53.273H53.2699H53.2668H53.2637H53.2605H53.2574H53.2543H53.2511H53.248H53.2448H53.2416H53.2384H53.2352H53.2319H53.2287H53.2254H53.2222H53.2189H53.2156H53.2123H53.209H53.2057H53.2024H53.199H53.1956H53.1923H53.1889H53.1855H53.1821H53.1787H53.1753H53.1718H53.1684H53.1649H53.1615H53.158H53.1545H53.151H53.1475H53.1439H53.1404H53.1369H53.1333H53.1297H53.1261H53.1225H53.1189H53.1153H53.1117H53.1081H53.1044H53.1008H53.0971H53.0934H53.0897H53.086H53.0823H53.0786H53.0749H53.0711H53.0674H53.0636H53.0599H53.0561H53.0523H53.0485H53.0447H53.0408H53.037H53.0332H53.0293H53.0255H53.0216H53.0177H53.0138H53.0099H53.006H53.0021H52.9981H52.9942H52.9902H52.9863H52.9823H52.9783H52.9743H52.9703H52.9663H52.9623H52.9583H52.9542H52.9502H52.9461H52.9421H52.938H52.9339H52.9298H52.9257H52.9216H52.9175H52.9134H52.9092H52.9051H52.9009H52.8967H52.8926H52.8884H52.8842H52.88H52.8758H52.8716H52.8673H52.8631H52.8588H52.8546H52.8503H52.8461H52.8418H52.8375H52.8332H52.8289H52.8246H52.8203H52.8159H52.8116H52.8072H52.8029H52.7985H52.7941H52.7898H52.7854H52.781H52.7766H52.7722H52.7677H52.7633H52.7589H52.7544H52.75H52.7455H52.7411H52.7366H52.7321H52.7276H52.7231H52.7186H52.7141H52.7096H52.705H52.7005H52.696H52.6914H52.6868H52.6823H52.6777H52.6731H52.6685H52.6639H52.6593H52.6547H52.6501H52.6455H52.6409H52.6362H52.6316H52.6269H52.6223H52.6176H52.6129H52.6082H52.6036H52.5989H52.5942H52.5895H52.5847H52.58H52.5753H52.5706H52.5658H52.5611H52.5563H52.5516H52.5468H52.542H52.5372H52.5325H52.5277H52.5229H52.5181H52.5133H52.5084H52.5036H52.4988H52.4939H52.4891H52.4843H52.4794H52.4746H52.4697H52.4648H52.4599H52.4551H52.4502H52.4453H52.4404H52.4355H52.4306H52.4256H52.4207H52.4158H52.4109H52.4059H52.401H52.396H52.3911H52.3861H52.3812H52.3762H52.3712H52.3662H52.3612H52.3562H52.3513H52.3462H52.3412H52.3362H52.3312H52.3262H52.3212H52.3161H52.3111H52.3061H52.301H52.296H52.2909H52.2858H52.2808H52.2757H52.2706H52.2656H52.2605H52.2554H52.2503H52.2452H52.2401H52.235H52.2299H52.2248H52.2196H52.2145H52.2094H52.2043H52.1991H52.194H52.1889H52.1837H52.1786H52.1734H52.1682H52.1631H52.1579H52.1527H52.1476H52.1424H52.1372H52.132H52.1268H52.1216H52.1164H52.1112H52.106H52.1008H52.0956H52.0904H52.0852H52.08H52.0747H52.0695H52.0643H52.059H52.0538H52.0486H52.0433H52.0381H52.0328H52.0276H52.0223H52.017H52.0118H52.0065H52.0012H51.996H51.9907H51.9854H51.9801H51.9749H51.9696H51.9643H51.959H51.9537H51.9484H51.9431H51.9378H51.9325H51.9272H51.9219H51.9166H51.9113H51.906H51.9006H51.8953H51.89H51.8847H51.8793H51.874H51.8687H51.8634H51.858H51.8527H51.8474H51.8421H51.8368H51.8315H51.8262H51.8209H51.8157H51.8104H51.8051H51.7999H51.7946H51.7894H51.7841H51.7789H51.7737H51.7685H51.7632H51.758H51.7528H51.7476H51.7424H51.7373H51.7321H51.7269H51.7218H51.7166H51.7114H51.7063H51.7012H51.696H51.6909H51.6858H51.6807H51.6756H51.6705H51.6654H51.6603H51.6552H51.6501H51.6451H51.64H51.6349H51.6299H51.6248H51.6198H51.6148H51.6098H51.6048H51.5997H51.5947H51.5897H51.5848H51.5798H51.5748H51.5698H51.5649H51.5599H51.555H51.55H51.5451H51.5402H51.5353H51.5304H51.5254H51.5206H51.5157H51.5108H51.5059H51.501H51.4962H51.4913H51.4865H51.4816H51.4768H51.472H51.4672H51.4623H51.4575H51.4527H51.4479H51.4432H51.4384H51.4336H51.4289H51.4241H51.4194H51.4146H51.4099H51.4052H51.4005H51.3957H51.391H51.3864H51.3817H51.377H51.3723H51.3677H51.363H51.3584H51.3537H51.3491H51.3445H51.3398H51.3352H51.3306H51.326H51.3214H51.3169H51.3123H51.3077H51.3032H51.2986H51.2941H51.2896H51.285H51.2805H51.276H51.2715H51.267H51.2625H51.2581H51.2536H51.2491H51.2447H51.2403H51.2358H51.2314H51.227H51.2226H51.2182H51.2138H51.2094H51.205H51.2006H51.1963H51.1919H51.1876H51.1832H51.1789H51.1746H51.1703H51.166H51.1617H51.1574H51.1531H51.1489H51.1446H51.1403H51.1361H51.1319H51.1276H51.1234H51.1192H51.115H51.1108H51.1066H51.1025H51.0983H51.0941H51.09H51.0859H51.0817H51.0776H51.0735H51.0694H51.0653H51.0612H51.0571H51.0531H51.049H51.0449H51.0409H51.0369H51.0328H51.0288H51.0248H51.0208H51.0168H51.0129H51.0089H51.0049H51.001H50.997H50.9931H50.9892H50.9853H50.9814H50.9775H50.9736H50.9697H50.9658H50.962H50.9581H50.9543H50.9505H50.9466H50.9428H50.939H50.9352H50.9314H50.9277H50.9239H50.9201H50.9164H50.9127H50.9089H50.9052H50.9015H50.8978H50.8941H50.8904H50.8868H50.8831H50.8795H50.8758H50.8722H50.8686H50.865H50.8614H50.8578H50.8542H50.8506H50.8471H50.8435H50.84H50.8364H50.8329H50.8294H50.8259H50.8224H50.8189H50.8154H50.812H50.8085H50.8051H50.8017H50.7982H50.7948H50.7914H50.788H50.7846H50.7813H50.7779H50.7746H50.7712H50.7679H50.7646H50.7613H50.758H50.7547H50.7514H50.7481H50.7449H50.7416H50.7384H50.7352H50.7319H50.7287H50.7255H50.7224H50.7192H50.716H50.7129H50.7097H50.7066H50.7035H50.7004H50.6973H50.6942H50.6911H50.688H50.685H50.6819H50.6789H50.6759H50.6728H50.6698H50.6669H50.6639H50.6609H50.6579H50.655H50.6521H50.6491H50.6462H50.6433H50.6404H50.6375H50.6347H50.6318H50.629H50.6261H50.6233H50.6205H50.6177H50.6149H50.6121H50.6093H50.6066H50.6038H50.6011H50.5983H50.5956H50.5929H50.5902H50.5876H50.5849H50.5822H50.5796H50.5769H50.5743H50.5717H50.5691H50.5665H50.5639H50.5614H50.5588H50.5563H50.5537H50.5512H50.5487H50.5462H50.5437H50.5412H50.5388H50.5363H50.5339H50.5315H50.5291H50.5267H50.5243H50.5219H50.5195H50.5172H50.5148H50.5125H50.5102H50.5078H50.5056H50.5033H50.501H50.4987H50.4965H50.4942H50.492H50.4898H50.4876H50.4854H50.4832H50.4811H50.4789H50.4768H50.4747H50.4725H50.4704H50.4683H50.4663H50.4642H50.4621H50.4601H50.4581H50.4561H50.4541H50.4521H50.4501H50.4481H50.4462H50.4442H50.4423H50.4404H50.4385H50.4366H50.4347H50.4328H50.431H50.4291H50.4273H50.4255H50.4237H50.4219H50.4201H50.4183H50.4166H50.4148H50.4131H50.4114H50.4097H50.408H50.4063H50.4047H50.403H50.4014H50.3997H50.3981H50.3965H50.3949H50.3934H50.3918H50.3903H50.3887H50.3872H50.3857H50.3842H50.3827H50.3812H50.3798H50.3783H50.3769H50.3755H50.3741H50.3727H50.3713H50.37H50.3686H50.3673H50.366H50.3646H50.3633H50.3621H50.3608H50.3595H50.3583H50.3571H50.3558H50.3546H50.3535H50.3523H50.3511H50.35H50.3488H50.3477H50.3466H50.3455H50.3444H50.3434H50.3423H50.3413H50.3402H50.3392H50.3382H50.3372H50.3363H50.3353H50.3344H50.3334H50.3325H50.3316H50.3307H50.3298H50.329H50.3281H50.3273H50.3265H50.3257H50.3249H50.3241H50.3234H50.3226H50.3219H50.3212H50.3204H50.3198H50.3191H50.3184H50.3178H50.3171H50.3165H50.3159H50.3153H50.3147H50.3142H50.3136H50.3131H50.3126H50.312H50.3116H50.3111H50.3106H50.3102H50.3097H50.3093H50.3089H50.3085H50.3081H50.3078H50.3074H50.3071H50.3068H50.3065H50.3062H50.3059H50.3056H50.3054H50.3052H50.305H50.3048H50.3046H50.3044H50.3042H50.3041H50.304H50.3039H50.3038H50.3037H50.3036H50.3036H50.3035H50.3035L50.3035 11.7462Z" fill="#263238" stroke="#263238" stroke-width="0.148096"/>
<path d="M58.0535 11.7462V11.6722H57.9794V11.7462C57.9794 12.0581 58.1875 12.3282 58.4976 12.5164C58.8092 12.7054 59.2348 12.8199 59.7011 12.8199C60.1673 12.8199 60.5929 12.7054 60.9045 12.5164C61.2147 12.3282 61.4227 12.0581 61.4227 11.7462V11.6722H61.3486V11.7462L61.3486 11.6722H61.3486H61.3485H61.3485H61.3484H61.3483H61.3482H61.348H61.3479H61.3477H61.3475H61.3473H61.3471H61.3468H61.3465H61.3463H61.3459H61.3456H61.3453H61.3449H61.3445H61.3441H61.3437H61.3433H61.3429H61.3424H61.3419H61.3414H61.3409H61.3403H61.3398H61.3392H61.3386H61.338H61.3374H61.3367H61.3361H61.3354H61.3347H61.334H61.3332H61.3325H61.3317H61.3309H61.3301H61.3293H61.3285H61.3276H61.3267H61.3259H61.3249H61.324H61.3231H61.3221H61.3212H61.3202H61.3192H61.3181H61.3171H61.316H61.3149H61.3139H61.3127H61.3116H61.3105H61.3093H61.3081H61.3069H61.3057H61.3045H61.3033H61.302H61.3007H61.2994H61.2981H61.2968H61.2955H61.2941H61.2927H61.2914H61.29H61.2885H61.2871H61.2856H61.2842H61.2827H61.2812H61.2797H61.2781H61.2766H61.275H61.2734H61.2718H61.2702H61.2686H61.267H61.2653H61.2636H61.2619H61.2602H61.2585H61.2568H61.255H61.2533H61.2515H61.2497H61.2479H61.246H61.2442H61.2423H61.2404H61.2386H61.2367H61.2347H61.2328H61.2308H61.2289H61.2269H61.2249H61.2229H61.2209H61.2188H61.2168H61.2147H61.2126H61.2105H61.2084H61.2063H61.2041H61.202H61.1998H61.1976H61.1954H61.1932H61.191H61.1887H61.1865H61.1842H61.1819H61.1796H61.1773H61.175H61.1726H61.1703H61.1679H61.1655H61.1631H61.1607H61.1583H61.1558H61.1534H61.1509H61.1484H61.1459H61.1434H61.1409H61.1384H61.1358H61.1333H61.1307H61.1281H61.1255H61.1229H61.1202H61.1176H61.1149H61.1122H61.1096H61.1069H61.1041H61.1014H61.0987H61.0959H61.0932H61.0904H61.0876H61.0848H61.082H61.0791H61.0763H61.0734H61.0706H61.0677H61.0648H61.0619H61.059H61.056H61.0531H61.0501H61.0472H61.0442H61.0412H61.0382H61.0352H61.0321H61.0291H61.026H61.023H61.0199H61.0168H61.0137H61.0105H61.0074H61.0043H61.0011H60.998H60.9948H60.9916H60.9884H60.9852H60.9819H60.9787H60.9754H60.9722H60.9689H60.9656H60.9623H60.959H60.9557H60.9524H60.949H60.9456H60.9423H60.9389H60.9355H60.9321H60.9287H60.9253H60.9218H60.9184H60.9149H60.9115H60.908H60.9045H60.901H60.8975H60.8939H60.8904H60.8869H60.8833H60.8797H60.8761H60.8725H60.8689H60.8653H60.8617H60.8581H60.8544H60.8508H60.8471H60.8434H60.8397H60.836H60.8323H60.8286H60.8249H60.8211H60.8174H60.8136H60.8099H60.8061H60.8023H60.7985H60.7947H60.7908H60.787H60.7832H60.7793H60.7755H60.7716H60.7677H60.7638H60.7599H60.756H60.7521H60.7481H60.7442H60.7402H60.7363H60.7323H60.7283H60.7243H60.7203H60.7163H60.7123H60.7083H60.7042H60.7002H60.6961H60.6921H60.688H60.6839H60.6798H60.6757H60.6716H60.6675H60.6634H60.6592H60.6551H60.6509H60.6467H60.6426H60.6384H60.6342H60.63H60.6258H60.6216H60.6173H60.6131H60.6088H60.6046H60.6003H60.5961H60.5918H60.5875H60.5832H60.5789H60.5746H60.5703H60.5659H60.5616H60.5572H60.5529H60.5485H60.5441H60.5398H60.5354H60.531H60.5266H60.5222H60.5177H60.5133H60.5089H60.5044H60.5H60.4955H60.4911H60.4866H60.4821H60.4776H60.4731H60.4686H60.4641H60.4596H60.455H60.4505H60.446H60.4414H60.4368H60.4323H60.4277H60.4231H60.4185H60.4139H60.4093H60.4047H60.4001H60.3955H60.3909H60.3862H60.3816H60.3769H60.3723H60.3676H60.3629H60.3582H60.3536H60.3489H60.3442H60.3395H60.3347H60.33H60.3253H60.3206H60.3158H60.3111H60.3063H60.3016H60.2968H60.292H60.2872H60.2825H60.2777H60.2729H60.2681H60.2633H60.2584H60.2536H60.2488H60.2439H60.2391H60.2343H60.2294H60.2246H60.2197H60.2148H60.2099H60.2051H60.2002H60.1953H60.1904H60.1855H60.1806H60.1756H60.1707H60.1658H60.1609H60.1559H60.151H60.146H60.1411H60.1361H60.1312H60.1262H60.1212H60.1162H60.1112H60.1062H60.1013H60.0962H60.0912H60.0862H60.0812H60.0762H60.0712H60.0661H60.0611H60.0561H60.051H60.046H60.0409H60.0358H60.0308H60.0257H60.0206H60.0156H60.0105H60.0054H60.0003H59.9952H59.9901H59.985H59.9799H59.9748H59.9696H59.9645H59.9594H59.9543H59.9491H59.944H59.9389H59.9337H59.9286H59.9234H59.9182H59.9131H59.9079H59.9027H59.8976H59.8924H59.8872H59.882H59.8768H59.8716H59.8664H59.8612H59.856H59.8508H59.8456H59.8404H59.8352H59.83H59.8247H59.8195H59.8143H59.809H59.8038H59.7986H59.7933H59.7881H59.7828H59.7776H59.7723H59.767H59.7618H59.7565H59.7512H59.746H59.7407H59.7354H59.7301H59.7249H59.7196H59.7143H59.709H59.7037H59.6984H59.6931H59.6878H59.6825H59.6772H59.6719H59.6666H59.6613H59.656H59.6506H59.6453H59.64H59.6347H59.6293H59.624H59.6187H59.6134H59.608H59.6027H59.5974H59.5921H59.5868H59.5815H59.5762H59.5709H59.5657H59.5604H59.5551H59.5499H59.5446H59.5394H59.5341H59.5289H59.5237H59.5185H59.5132H59.508H59.5028H59.4976H59.4924H59.4873H59.4821H59.4769H59.4718H59.4666H59.4614H59.4563H59.4512H59.446H59.4409H59.4358H59.4307H59.4256H59.4205H59.4154H59.4103H59.4052H59.4001H59.3951H59.39H59.3849H59.3799H59.3748H59.3698H59.3648H59.3598H59.3548H59.3497H59.3447H59.3397H59.3348H59.3298H59.3248H59.3198H59.3149H59.3099H59.305H59.3H59.2951H59.2902H59.2853H59.2804H59.2754H59.2706H59.2657H59.2608H59.2559H59.251H59.2462H59.2413H59.2365H59.2316H59.2268H59.222H59.2172H59.2123H59.2075H59.2027H59.1979H59.1932H59.1884H59.1836H59.1789H59.1741H59.1694H59.1646H59.1599H59.1552H59.1505H59.1457H59.141H59.1364H59.1317H59.127H59.1223H59.1177H59.113H59.1084H59.1037H59.0991H59.0945H59.0898H59.0852H59.0806H59.076H59.0714H59.0669H59.0623H59.0577H59.0532H59.0486H59.0441H59.0396H59.035H59.0305H59.026H59.0215H59.017H59.0125H59.0081H59.0036H58.9991H58.9947H58.9903H58.9858H58.9814H58.977H58.9726H58.9682H58.9638H58.9594H58.955H58.9506H58.9463H58.9419H58.9376H58.9332H58.9289H58.9246H58.9203H58.916H58.9117H58.9074H58.9031H58.8989H58.8946H58.8903H58.8861H58.8819H58.8776H58.8734H58.8692H58.865H58.8608H58.8566H58.8525H58.8483H58.8441H58.84H58.8359H58.8317H58.8276H58.8235H58.8194H58.8153H58.8112H58.8071H58.8031H58.799H58.7949H58.7909H58.7869H58.7828H58.7788H58.7748H58.7708H58.7668H58.7629H58.7589H58.7549H58.751H58.747H58.7431H58.7392H58.7353H58.7314H58.7275H58.7236H58.7197H58.7158H58.712H58.7081H58.7043H58.7005H58.6966H58.6928H58.689H58.6852H58.6814H58.6777H58.6739H58.6701H58.6664H58.6627H58.6589H58.6552H58.6515H58.6478H58.6441H58.6404H58.6368H58.6331H58.6295H58.6258H58.6222H58.6186H58.615H58.6114H58.6078H58.6042H58.6006H58.5971H58.5935H58.59H58.5864H58.5829H58.5794H58.5759H58.5724H58.5689H58.5654H58.562H58.5585H58.5551H58.5517H58.5482H58.5448H58.5414H58.538H58.5346H58.5313H58.5279H58.5246H58.5212H58.5179H58.5146H58.5113H58.508H58.5047H58.5014H58.4981H58.4949H58.4916H58.4884H58.4852H58.4819H58.4787H58.4755H58.4724H58.4692H58.466H58.4629H58.4597H58.4566H58.4535H58.4504H58.4473H58.4442H58.4411H58.438H58.435H58.4319H58.4289H58.4259H58.4228H58.4198H58.4169H58.4139H58.4109H58.4079H58.405H58.4021H58.3991H58.3962H58.3933H58.3904H58.3875H58.3847H58.3818H58.379H58.3761H58.3733H58.3705H58.3677H58.3649H58.3621H58.3593H58.3566H58.3538H58.3511H58.3483H58.3456H58.3429H58.3402H58.3376H58.3349H58.3322H58.3296H58.3269H58.3243H58.3217H58.3191H58.3165H58.3139H58.3114H58.3088H58.3063H58.3037H58.3012H58.2987H58.2962H58.2937H58.2912H58.2888H58.2863H58.2839H58.2815H58.2791H58.2767H58.2743H58.2719H58.2695H58.2672H58.2648H58.2625H58.2602H58.2578H58.2556H58.2533H58.251H58.2487H58.2465H58.2442H58.242H58.2398H58.2376H58.2354H58.2332H58.2311H58.2289H58.2268H58.2247H58.2225H58.2204H58.2183H58.2163H58.2142H58.2121H58.2101H58.2081H58.2061H58.2041H58.2021H58.2001H58.1981H58.1962H58.1942H58.1923H58.1904H58.1885H58.1866H58.1847H58.1828H58.181H58.1791H58.1773H58.1755H58.1737H58.1719H58.1701H58.1683H58.1666H58.1648H58.1631H58.1614H58.1597H58.158H58.1563H58.1547H58.153H58.1514H58.1497H58.1481H58.1465H58.1449H58.1434H58.1418H58.1403H58.1387H58.1372H58.1357H58.1342H58.1327H58.1312H58.1298H58.1283H58.1269H58.1255H58.1241H58.1227H58.1213H58.12H58.1186H58.1173H58.116H58.1146H58.1133H58.1121H58.1108H58.1095H58.1083H58.1071H58.1058H58.1046H58.1035H58.1023H58.1011H58.1H58.0988H58.0977H58.0966H58.0955H58.0944H58.0934H58.0923H58.0913H58.0902H58.0892H58.0882H58.0872H58.0863H58.0853H58.0844H58.0834H58.0825H58.0816H58.0807H58.0798H58.079H58.0781H58.0773H58.0765H58.0757H58.0749H58.0741H58.0734H58.0726H58.0719H58.0712H58.0704H58.0698H58.0691H58.0684H58.0678H58.0671H58.0665H58.0659H58.0653H58.0647H58.0642H58.0636H58.0631H58.0626H58.062H58.0616H58.0611H58.0606H58.0602H58.0597H58.0593H58.0589H58.0585H58.0581H58.0578H58.0574H58.0571H58.0568H58.0565H58.0562H58.0559H58.0556H58.0554H58.0552H58.055H58.0548H58.0546H58.0544H58.0542H58.0541H58.054H58.0539H58.0538H58.0537H58.0536H58.0536H58.0535H58.0535L58.0535 11.7462Z" fill="#263238" stroke="#263238" stroke-width="0.148096"/>
</svg>
